<svg width="30" height="30" viewBox="0 0 30 30" fill="none" xmlns="http://www.w3.org/2000/svg">
<path fill-rule="evenodd" clip-rule="evenodd" d="M6.40877 7.5C6.22111 6.7732 6.19929 6.01253 6.34607 5.27455C6.50649 4.4681 6.86331 3.71365 7.38495 3.07804C7.90659 2.44243 8.57692 1.94526 9.33659 1.6306C10.0962 1.31594 10.9218 1.19348 11.7401 1.27408C12.5584 1.35468 13.3441 1.63584 14.0279 2.09265C14.3886 2.33373 14.7151 2.6198 15 2.94281C15.2656 2.64169 15.5674 2.37255 15.8996 2.142C16.5632 1.6816 17.3284 1.38879 18.1297 1.28861C18.9312 1.18844 19.7449 1.28388 20.5014 1.56678C21.2579 1.84966 21.9345 2.3116 22.4735 2.91304C23.0125 3.51449 23.3979 4.23755 23.5965 5.02038C23.7951 5.8032 23.8011 6.62249 23.614 7.40815C23.6067 7.43886 23.5991 7.46948 23.5912 7.5H23.75C25.8211 7.5 27.5 9.17894 27.5 11.25V12.5C27.5 14.1328 26.4565 15.5219 25 16.0366V25C25 27.0711 23.3211 28.75 21.25 28.75H8.75C6.67894 28.75 5 27.0711 5 25V16.0366C3.54351 15.5219 2.5 14.1328 2.5 12.5V11.25C2.5 9.17894 4.17894 7.5 6.25 7.5H6.40877ZM13.441 5.07889C13.6335 5.439 13.7499 5.841 13.75 6.24934V7.5H9.10301C9.0063 7.33389 8.92884 7.1565 8.87261 6.97118C8.75402 6.58021 8.73367 6.16604 8.81337 5.76533C8.89309 5.36463 9.07037 4.98976 9.32956 4.67394C9.58875 4.35813 9.92182 4.1111 10.2993 3.95475C10.6767 3.7984 11.0869 3.73756 11.4935 3.7776C11.9001 3.81765 12.2905 3.95735 12.6302 4.18434C12.97 4.41131 13.2484 4.71856 13.441 5.07889ZM16.25 26.25H21.25C21.9404 26.25 22.5 25.6904 22.5 25V16.25H16.25V26.25ZM13.75 16.25V26.25H8.75C8.05965 26.25 7.5 25.6904 7.5 25V16.25H13.75ZM16.25 13.75H23.75C24.4404 13.75 25 13.1904 25 12.5V11.25C25 10.5597 24.4404 10 23.75 10H16.25V13.75ZM13.75 10V13.75H6.25C5.55965 13.75 5 13.1904 5 12.5V11.25C5 10.5597 5.55965 10 6.25 10H13.75ZM16.25 7.5H20.897C21.0191 7.29031 21.1102 7.06314 21.1667 6.82545C21.2597 6.43508 21.2567 6.028 21.1581 5.63904C21.0594 5.25008 20.868 4.8908 20.6001 4.59196C20.3322 4.29311 19.9961 4.0636 19.6202 3.92304C19.2444 3.78248 18.84 3.73505 18.4419 3.78483C18.0436 3.8346 17.6635 3.98009 17.3337 4.20885C17.004 4.43761 16.7346 4.74284 16.5486 5.09841C16.3629 5.45363 16.2501 5.84913 16.25 6.25V7.5Z" fill="white"/>
</svg>
