<svg width="45" height="46" viewBox="0 0 45 46" fill="none" xmlns="http://www.w3.org/2000/svg">
<path d="M19.5189 8.6001C18.7422 8.6001 18.1126 9.2297 18.1126 10.0063C18.1126 10.783 18.7422 11.4126 19.5189 11.4126V8.6001ZM25.0033 11.4126C25.78 11.4126 26.4096 10.783 26.4096 10.0063C26.4096 9.2297 25.78 8.6001 25.0033 8.6001V11.4126ZM19.0274 31.6047C19.0172 30.8282 18.3794 30.2068 17.6028 30.2172C16.8262 30.2273 16.2049 30.8652 16.2152 31.6418L19.0274 31.6047ZM22.2612 36.2563L22.2803 34.8503C22.2675 34.8501 22.2548 34.8501 22.2418 34.8503L22.2612 36.2563ZM28.3069 31.6418C28.3172 30.8652 27.6958 30.2273 26.9194 30.2172C26.1428 30.2068 25.5049 30.8282 25.4948 31.6047L28.3069 31.6418ZM17.6195 33.0295C18.3961 33.0295 19.0257 32.3998 19.0257 31.6232C19.0257 30.8466 18.3961 30.217 17.6195 30.217V33.0295ZM15.5573 31.6232L15.5457 33.0295H15.5573V31.6232ZM12.2064 28.1338L13.6126 28.1436V28.1338H12.2064ZM13.923 20.8363L15.3076 21.0818C15.3109 21.0636 15.3137 21.0454 15.3163 21.027L13.923 20.8363ZM22.2612 13.0945L22.3187 11.6894C22.2803 11.6878 22.2417 11.6878 22.2032 11.6894L22.2612 13.0945ZM30.5991 20.8307L29.206 21.0222C29.2082 21.0381 29.2107 21.0538 29.2133 21.0696L30.5991 20.8307ZM30.9647 23.4557L32.3554 23.247L32.355 23.2448L30.9647 23.4557ZM32.3158 28.1282H30.9094L30.9096 28.1387L32.3158 28.1282ZM28.9648 31.6195V33.0257H28.9765L28.9648 31.6195ZM26.9008 30.2132C26.1242 30.2132 25.4946 30.8428 25.4946 31.6195C25.4946 32.3961 26.1242 33.0257 26.9008 33.0257V30.2132ZM17.6195 30.2132C16.8428 30.2132 16.2132 30.8428 16.2132 31.6195C16.2132 32.3961 16.8428 33.0257 17.6195 33.0257V30.2132ZM26.9008 33.0257C27.6775 33.0257 28.3071 32.3961 28.3071 31.6195C28.3071 30.8428 27.6775 30.2132 26.9008 30.2132V33.0257ZM19.5189 11.4126H25.0033V8.6001H19.5189V11.4126ZM16.2152 31.6418C16.259 34.9782 18.9415 37.708 22.2803 37.6624L22.2418 34.8503C20.5236 34.8735 19.0517 33.4551 19.0274 31.6047L16.2152 31.6418ZM22.2418 37.6624C25.5807 37.708 28.263 34.9782 28.3069 31.6418L25.4948 31.6047C25.4704 33.4551 23.9985 34.8735 22.2803 34.8503L22.2418 37.6624ZM17.6195 30.217H15.5573V33.0295H17.6195V30.217ZM15.569 30.217C14.5137 30.2083 13.6046 29.3136 13.6126 28.1436L10.8002 28.1241C10.7819 30.7785 12.8721 33.0072 15.5457 33.0295L15.569 30.217ZM13.6126 28.1338C13.6126 27.6145 13.7874 27.0777 14.0946 26.3173C14.371 25.633 14.7956 24.6859 14.948 23.67L12.1669 23.2515C12.0762 23.8557 11.8251 24.4266 11.4868 25.2638C11.1793 26.025 10.8001 27.0145 10.8001 28.1338H13.6126ZM14.948 23.67C15.1211 22.5225 15.2042 21.6653 15.3076 21.0818L12.5383 20.5909C12.437 21.1624 12.3009 22.3628 12.1669 23.2515L14.948 23.67ZM15.3163 21.027C15.817 17.3681 18.7861 14.6449 22.3189 14.4995L22.2032 11.6894C17.2591 11.8928 13.2082 15.6878 12.5297 20.6457L15.3163 21.027ZM22.2034 14.4995C25.7346 14.6445 28.7033 17.3652 29.206 21.0222L31.9922 20.6393C31.311 15.6838 27.2608 11.8923 22.3187 11.6894L22.2034 14.4995ZM29.2133 21.0696C29.3173 21.6732 29.4004 22.5193 29.5744 23.6667L32.355 23.2448C32.2219 22.3671 32.082 21.1545 31.9849 20.5918L29.2133 21.0696ZM29.574 23.6644C29.7265 24.6803 30.1512 25.6273 30.4275 26.3117C30.7347 27.072 30.9094 27.6088 30.9094 28.1282H33.7221C33.7221 27.0088 33.3428 26.0194 33.0353 25.2582C32.697 24.421 32.4462 23.8512 32.3554 23.247L29.574 23.6644ZM30.9096 28.1387C30.9182 29.3093 30.0088 30.2046 28.9532 30.2132L28.9765 33.0257C31.651 33.0034 33.7416 30.7731 33.7219 28.1177L30.9096 28.1387ZM28.9648 30.2132H26.9008V33.0257H28.9648V30.2132ZM17.6195 33.0257H26.9008V30.2132H17.6195V33.0257Z" fill="white"/>
</svg>
